<svg xmlns="http://www.w3.org/2000/svg" version="1.1" xmlns:xlink="http://www.w3.org/1999/xlink" xmlns:svgjs="http://svgjs.dev/svgjs" width="1000" height="1000" viewBox="0 0 1000 1000"><rect width="1000" height="1000" fill="#000000"></rect><g transform="matrix(0.7,0,0,0.7,149.57575879384922,427.47641045217864)"><svg viewBox="0 0 396 82" data-background-color="#ffffff" preserveAspectRatio="xMidYMid meet" height="207" width="1000" xmlns="http://www.w3.org/2000/svg" xmlns:xlink="http://www.w3.org/1999/xlink"><g id="tight-bounds" transform="matrix(1,0,0,1,0.23999931090816062,0.041644878684280684)"><svg viewBox="0 0 395.52 81.91671024263141" height="81.91671024263141" width="395.52"><g><svg viewBox="0 0 596.8115312552497 123.60648582953442" height="81.91671024263141" width="395.52"><g><rect width="5.982226693676133" height="123.60648582953442" x="179.64902525875652" y="0" fill="#ffffff" opacity="1" stroke-width="0" stroke="transparent" fill-opacity="1" class="rect-o-0" data-fill-palette-color="primary" rx="1%" id="o-0" data-palette-color="#a437db"></rect></g><g transform="matrix(1,0,0,1,201.29153125524977,0.30747882047147357)"><svg viewBox="0 0 395.52 122.99152818859147" height="122.99152818859147" width="395.52"><g id="textblocktransform"><svg viewBox="0 0 395.52 122.99152818859147" height="122.99152818859147" width="395.52" id="textblock"><g><svg viewBox="0 0 395.52 66.33575332866154" height="66.33575332866154" width="395.52"><g transform="matrix(1,0,0,1,0,0)"><svg width="395.52" viewBox="4.150000095367432 -35.29999923706055 214.02999877929688 35.89999771118164" height="66.33575332866154" data-palette-color="#a437db"><path d="M15.45 0L4.15 0 4.15-32.7 14.6-32.7Q17.15-32.7 19.28-32.27 21.4-31.85 22.98-30.93 24.55-30 25.43-28.45 26.3-26.9 26.3-24.65L26.3-24.65Q26.3-22.3 25.1-20.3 23.9-18.3 21.75-17.55L21.75-17.55 21.75-17.35Q24.45-16.75 26.23-14.83 28-12.9 28-9.6L28-9.6Q28-7.15 27.05-5.35 26.1-3.55 24.43-2.35 22.75-1.15 20.45-0.58 18.15 0 15.45 0L15.45 0ZM9.95-28.2L9.95-19.2 14.1-19.2Q17.55-19.2 19.07-20.45 20.6-21.7 20.6-23.8L20.6-23.8Q20.6-26.2 19-27.2 17.4-28.2 14.2-28.2L14.2-28.2 9.95-28.2ZM9.95-14.85L9.95-4.5 14.85-4.5Q18.45-4.5 20.4-5.83 22.35-7.15 22.35-9.9L22.35-9.9Q22.35-12.5 20.45-13.68 18.55-14.85 14.85-14.85L14.85-14.85 9.95-14.85ZM39.1 0.6L39.1 0.6Q36 0.6 34.75-1.25 33.5-3.1 33.5-6.3L33.5-6.3 33.5-35.3 39.25-35.3 39.25-6Q39.25-4.95 39.65-4.53 40.05-4.1 40.5-4.1L40.5-4.1Q40.7-4.1 40.87-4.1 41.05-4.1 41.4-4.2L41.4-4.2 42.15 0.1Q41 0.6 39.1 0.6ZM57.1 0.6L57.1 0.6Q54.8 0.6 52.7-0.25 50.6-1.1 48.97-2.75 47.35-4.4 46.4-6.8 45.45-9.2 45.45-12.25L45.45-12.25Q45.45-15.3 46.4-17.7 47.35-20.1 48.97-21.75 50.6-23.4 52.7-24.28 54.8-25.15 57.1-25.15L57.1-25.15Q59.4-25.15 61.52-24.28 63.65-23.4 65.25-21.75 66.84-20.1 67.82-17.7 68.8-15.3 68.8-12.25L68.8-12.25Q68.8-9.2 67.82-6.8 66.84-4.4 65.25-2.75 63.65-1.1 61.52-0.25 59.4 0.6 57.1 0.6ZM57.1-4.1L57.1-4.1Q59.8-4.1 61.34-6.33 62.9-8.55 62.9-12.25L62.9-12.25Q62.9-16 61.34-18.23 59.8-20.45 57.1-20.45L57.1-20.45Q54.4-20.45 52.87-18.23 51.35-16 51.35-12.25L51.35-12.25Q51.35-8.55 52.87-6.33 54.4-4.1 57.1-4.1ZM84.74 0.6L84.74 0.6Q82.24 0.6 80.07-0.25 77.89-1.1 76.29-2.75 74.69-4.4 73.79-6.8 72.89-9.2 72.89-12.25L72.89-12.25Q72.89-15.3 73.89-17.7 74.89-20.1 76.59-21.75 78.29-23.4 80.52-24.28 82.74-25.15 85.19-25.15L85.19-25.15Q87.59-25.15 89.32-24.35 91.04-23.55 92.39-22.4L92.39-22.4 89.59-18.65Q88.59-19.5 87.62-19.98 86.64-20.45 85.49-20.45L85.49-20.45Q82.49-20.45 80.64-18.23 78.79-16 78.79-12.25L78.79-12.25Q78.79-8.55 80.62-6.33 82.44-4.1 85.34-4.1L85.34-4.1Q86.79-4.1 88.07-4.73 89.34-5.35 90.39-6.2L90.39-6.2 92.74-2.4Q90.99-0.9 88.92-0.15 86.84 0.6 84.74 0.6ZM103.24 0L97.59 0 97.59-35.3 103.24-35.3 103.24-13.25 103.39-13.25 112.49-24.55 118.79-24.55 110.39-14.55 119.64 0 113.39 0 107.09-10.65 103.24-6.25 103.24 0ZM130.89-17.4L130.89-17.4 129.74-13.4 138.09-13.4 136.94-17.4Q136.14-20 135.41-22.75 134.69-25.5 133.99-28.2L133.99-28.2 133.79-28.2Q133.09-25.45 132.39-22.73 131.69-20 130.89-17.4ZM125.84 0L119.94 0 130.59-32.7 137.39-32.7 148.04 0 141.94 0 139.39-8.85 128.39-8.85 125.84 0ZM158.69 0.6L158.69 0.6Q154.74 0.6 152.94-1.93 151.14-4.45 151.14-9.15L151.14-9.15 151.14-24.55 156.89-24.55 156.89-9.9Q156.89-6.85 157.79-5.6 158.69-4.35 160.69-4.35L160.69-4.35Q162.29-4.35 163.51-5.15 164.74-5.95 166.14-7.75L166.14-7.75 166.14-24.55 171.89-24.55 171.89 0 167.19 0 166.74-3.6 166.59-3.6Q164.99-1.7 163.11-0.55 161.24 0.6 158.69 0.6ZM187.83 0.6L187.83 0.6Q185.68 0.6 184.21-0.05 182.73-0.7 181.81-1.88 180.88-3.05 180.46-4.67 180.03-6.3 180.03-8.3L180.03-8.3 180.03-20 176.53-20 176.53-24.3 180.33-24.55 181.03-31.25 185.83-31.25 185.83-24.55 192.08-24.55 192.08-20 185.83-20 185.83-8.3Q185.83-4 189.28-4L189.28-4Q189.93-4 190.61-4.15 191.28-4.3 191.83-4.55L191.83-4.55 192.83-0.3Q191.83 0.05 190.56 0.33 189.28 0.6 187.83 0.6ZM202.98 0L197.23 0 197.23-35.3 202.98-35.3 202.98-26.2 202.78-21.45Q204.33-22.9 206.21-24.03 208.08-25.15 210.63-25.15L210.63-25.15Q214.58-25.15 216.38-22.63 218.18-20.1 218.18-15.4L218.18-15.4 218.18 0 212.43 0 212.43-14.65Q212.43-17.7 211.53-18.95 210.63-20.2 208.58-20.2L208.58-20.2Q206.98-20.2 205.76-19.43 204.53-18.65 202.98-17.15L202.98-17.15 202.98 0Z" opacity="1" transform="matrix(1,0,0,1,0,0)" fill="#ffffff" class="undefined-text-0" data-fill-palette-color="primary" id="text-0"></path></svg></g></svg></g><g transform="matrix(1,0,0,1,0,81.99603263147864)"><svg viewBox="0 0 219.95922034796422 40.99549555711283" height="40.99549555711283" width="219.95922034796422"><g transform="matrix(1,0,0,1,0,0)"><svg width="219.95922034796422" viewBox="1.100000023841858 -35.5 242.20999145507812 45.150001525878906" height="40.99549555711283" data-palette-color="#b19dd0"><path d="M7.65 0.5L7.65 0.5Q4.3 0.5 2.7-0.5 1.1-1.5 1.1-2.6L1.1-2.6Q1.1-3.3 1.38-4.23 1.65-5.15 2.2-5.9L2.2-5.9Q3-5.2 4.28-4.7 5.55-4.2 7.2-4.2L7.2-4.2Q9.65-4.2 10.68-5.48 11.7-6.75 11.7-8.85L11.7-8.85Q11.7-10.45 11.13-11.8 10.55-13.15 9-15L9-15 4.15-20.9Q2.45-23.05 1.78-24.75 1.1-26.45 1.1-28.15L1.1-28.15Q1.1-31.4 3.33-33.45 5.55-35.5 9.85-35.5L9.85-35.5Q13.45-35.5 14.95-34.77 16.45-34.05 16.45-32.9L16.45-32.9Q16.45-32.35 16.2-31.65 15.95-30.95 15.35-30.3L15.35-30.3Q14.9-30.65 13.6-31.05 12.3-31.45 10.65-31.45L10.65-31.45Q8.55-31.45 7.3-30.63 6.05-29.8 6.05-28.3L6.05-28.3Q6.05-27 6.6-25.93 7.15-24.85 8.2-23.5L8.2-23.5 13.4-17.35Q15.3-15.05 15.98-13.18 16.65-11.3 16.65-9.05L16.65-9.05Q16.65-6.5 15.83-4.33 15-2.15 13.08-0.83 11.15 0.5 7.65 0.5ZM26.9 0.5L26.9 0.5Q25.15 0.5 23.7 0 22.25-0.5 21.2-1.75 20.15-3 19.55-5.3 18.95-7.6 18.95-11.25L18.95-11.25Q18.95-15.9 19.7-18.73 20.45-21.55 21.7-23 22.95-24.45 24.55-24.98 26.15-25.5 27.8-25.5L27.8-25.5Q30.9-25.5 32.55-23.53 34.2-21.55 34.2-17.45L34.2-17.45Q34.2-15.7 34.05-13.9 33.9-12.1 33.55-10.75L33.55-10.75Q31.9-10.4 29.87-10.23 27.85-10.05 25.97-10 24.1-9.95 22.9-9.95 21.7-9.95 21.7-9.95L21.7-9.95 21.8-13.65Q21.8-13.65 22.65-13.63 23.5-13.6 24.8-13.6 26.1-13.6 27.37-13.73 28.65-13.85 29.5-14.1L29.5-14.1Q29.65-14.75 29.7-15.53 29.75-16.3 29.75-17L29.75-17Q29.7-19.6 29.17-20.55 28.65-21.5 27.25-21.5L27.25-21.5Q26.45-21.5 25.8-21 25.15-20.5 24.67-19.35 24.2-18.2 23.95-16.28 23.7-14.35 23.7-11.45L23.7-11.45Q23.7-9.3 23.92-7.85 24.15-6.4 24.62-5.55 25.1-4.7 25.92-4.33 26.75-3.95 27.9-3.95L27.9-3.95Q29.35-3.95 30.77-4.35 32.2-4.75 33.45-5.45L33.45-5.45Q33.7-4.8 33.77-3.93 33.85-3.05 33.85-2.35L33.85-2.35Q33.85-1.5 32.9-0.85 31.95-0.2 30.37 0.15 28.8 0.5 26.9 0.5ZM44.2 0.5L44.2 0.5Q42.35 0.5 40.95 0.03 39.55-0.45 38.62-1.8 37.7-3.15 37.22-5.58 36.75-8 36.75-11.95L36.75-11.95Q36.75-16.45 37.55-19.15 38.35-21.85 39.67-23.23 41-24.6 42.57-25.05 44.15-25.5 45.7-25.5L45.7-25.5Q47.5-25.5 48.67-24.85 49.85-24.2 49.85-23.15L49.85-23.15Q49.85-22.7 49.75-22.05 49.65-21.4 49.4-20.65L49.4-20.65Q48.8-20.95 47.87-21.2 46.95-21.45 46-21.45L46-21.45Q45.2-21.45 44.4-21.15 43.6-20.85 42.95-19.9 42.3-18.95 41.9-17.05 41.5-15.15 41.5-11.95L41.5-11.95Q41.5-9.5 41.72-7.85 41.95-6.2 42.45-5.28 42.95-4.35 43.72-3.95 44.5-3.55 45.6-3.55L45.6-3.55Q46.7-3.55 47.7-3.85 48.7-4.15 49.3-4.55L49.3-4.55Q49.55-3.8 49.65-3.23 49.75-2.65 49.75-2.1L49.75-2.1Q49.75-1 48.2-0.25 46.65 0.5 44.2 0.5ZM60.09 0.5L60.09 0.5Q57.14 0.5 55.52-0.4 53.89-1.3 53.24-3.08 52.59-4.85 52.59-7.55L52.59-7.55 52.59-24.1Q52.59-24.55 52.79-24.73 52.99-24.9 53.99-24.95 54.99-25 57.34-25L57.34-25 57.34-7.2Q57.34-5.85 57.57-5.03 57.79-4.2 58.39-3.83 58.99-3.45 60.14-3.45L60.14-3.45Q60.74-3.45 61.54-3.63 62.34-3.8 62.99-4.3L62.99-4.3 62.99-24.1Q62.99-24.55 63.19-24.73 63.39-24.9 64.34-24.95 65.29-25 67.54-25L67.54-25 67.54-1.35Q66.19-0.6 64.19-0.05 62.19 0.5 60.09 0.5ZM71.59 0L71.59 0 71.59-23.25Q72.99-24.25 74.74-24.88 76.49-25.5 78.44-25.5L78.44-25.5Q80.44-25.5 81.17-24.95 81.89-24.4 81.89-23.25L81.89-23.25Q81.89-22.85 81.79-22.1 81.69-21.35 81.39-20.6L81.39-20.6Q80.89-20.85 80.34-20.98 79.79-21.1 79.19-21.1L79.19-21.1Q78.49-21.1 77.72-20.85 76.94-20.6 76.29-20.1L76.29-20.1 76.24-0.9Q76.24-0.45 76.04-0.28 75.84-0.1 74.87-0.05 73.89 0 71.59 0ZM84.54 0L84.54 0 84.54-22.95Q84.54-24 84.91-24.43 85.29-24.85 86.29-24.93 87.29-25 89.19-25L89.19-25 89.19-0.9Q89.19-0.45 88.99-0.28 88.79-0.1 87.81-0.05 86.84 0 84.54 0ZM86.74-28.05L86.74-28.05Q85.64-28.05 85.04-28.8 84.44-29.55 84.49-31.5L84.49-31.5Q84.49-33 85.11-33.9 85.74-34.8 87.04-34.8L87.04-34.8Q88.34-34.8 88.81-34.1 89.29-33.4 89.29-31.65L89.29-31.65Q89.24-29.95 88.61-29 87.99-28.05 86.74-28.05ZM100.24 0.5L100.24 0.5Q98.09 0.5 97.04-0.38 95.99-1.25 95.66-2.93 95.34-4.6 95.34-6.8L95.34-6.8 95.34-21.1 92.04-21.1Q92.04-22.85 92.09-23.68 92.14-24.5 92.36-24.75 92.59-25 93.04-25L93.04-25 95.34-25 95.34-32.5Q95.34-33.25 95.71-33.55 96.09-33.85 97.06-33.93 98.04-34 99.89-34L99.89-34 99.89-25 104.69-25Q104.69-23.25 104.64-22.43 104.59-21.6 104.41-21.35 104.24-21.1 103.79-21.1L103.79-21.1 99.89-21.1 99.89-6.85Q99.89-5.95 99.96-5.15 100.04-4.35 100.36-3.88 100.69-3.4 101.49-3.4L101.49-3.4Q102.34-3.4 102.96-3.58 103.59-3.75 104.34-4.1L104.34-4.1Q104.44-3.7 104.54-3.15 104.64-2.6 104.64-1.9L104.64-1.9Q104.64-0.9 103.94-0.38 103.24 0.15 102.24 0.33 101.24 0.5 100.24 0.5ZM109.68 9.65L109.68 9.65Q107.23 9.65 106.31 9.05 105.38 8.45 105.38 7.5L105.38 7.5Q105.38 6.9 105.56 6.18 105.73 5.45 106.03 5L106.03 5Q106.53 5.3 107.43 5.53 108.33 5.75 109.28 5.75L109.28 5.75Q110.38 5.75 111.23 4.7 112.08 3.65 112.53 0.8L112.53 0.8 106.73-23.75Q106.58-24.4 106.71-24.65 106.83-24.9 107.83-24.95 108.83-25 111.18-25L111.18-25 113.48-14.15Q113.78-12.6 114.01-11 114.23-9.4 114.41-8 114.58-6.6 114.68-5.75 114.78-4.9 114.78-4.9L114.78-4.9Q114.78-4.9 114.86-5.75 114.93-6.6 115.11-7.98 115.28-9.35 115.51-10.98 115.73-12.6 115.93-14.2L115.93-14.2 117.73-23.7Q117.83-24.35 118.08-24.6 118.33-24.85 119.33-24.93 120.33-25 122.63-25L122.63-25 116.68 1.3Q115.93 4.45 115.03 6.3 114.13 8.15 112.86 8.9 111.58 9.65 109.68 9.65ZM143.58-7.9L141.68-7.9 139.13-15.6Q138.98-16.05 138.65-17.25 138.33-18.45 137.9-20.05 137.48-21.65 137-23.33 136.53-25 136.15-26.45 135.78-27.9 135.55-28.78 135.33-29.65 135.33-29.65L135.33-29.65 137.08-35 141.58-20.8Q141.88-19.95 142.15-18.98 142.43-18 142.63-17.2 142.83-16.4 142.95-15.9 143.08-15.4 143.08-15.4L143.08-15.4Q143.08-15.4 143.18-15.9 143.28-16.4 143.5-17.2 143.73-18 143.95-18.93 144.18-19.85 144.48-20.7L144.48-20.7 148.53-34.1 150.58-29.5Q150.58-29.5 150.35-28.63 150.13-27.75 149.75-26.35 149.38-24.95 148.93-23.28 148.48-21.6 148.03-20.05 147.58-18.5 147.25-17.3 146.93-16.1 146.73-15.6L146.73-15.6 144.13-8.3Q144.03-7.9 143.58-7.9L143.58-7.9ZM132.83 0L132.83 0 132.83-34.1Q132.83-34.75 133.1-34.88 133.38-35 133.73-35L133.73-35 137.08-35 137.33-27.55 136.13-26.1Q136.13-26.1 136.2-25.48 136.28-24.85 136.4-23.73 136.53-22.6 136.65-21.13 136.78-19.65 136.9-18.03 137.03-16.4 137.13-14.7 137.23-13 137.23-11.45L137.23-11.45 137.33-0.9Q137.33-0.45 137.1-0.28 136.88-0.1 135.93-0.05 134.98 0 132.83 0ZM148.48 0L148.48 0 148.68-11.3Q148.73-12.85 148.83-14.55 148.93-16.25 149.05-17.93 149.18-19.6 149.3-21.13 149.43-22.65 149.53-23.8 149.63-24.95 149.7-25.63 149.78-26.3 149.78-26.3L149.78-26.3 148.53-27.35 148.53-34.1Q148.68-34.55 148.83-34.77 148.98-35 149.43-35L149.43-35Q151.28-35 152.05-35 152.83-35 153-35 153.18-35 153.18-35L153.18-35 153.18-0.9Q153.18-0.45 152.98-0.28 152.78-0.1 151.8-0.05 150.83 0 148.48 0ZM163.58 0.5L163.58 0.5Q162.18 0.5 160.9 0.28 159.63 0.05 158.6-0.73 157.58-1.5 157-3.05 156.43-4.6 156.43-7.15L156.43-7.15Q156.43-9.75 156.95-11.38 157.48-13 158.4-13.88 159.33-14.75 160.45-15.08 161.58-15.4 162.78-15.4L162.78-15.4Q163.53-15.4 164.55-15.25 165.58-15.1 166.28-14.7L166.28-14.7Q166.28-14.7 166.28-15.35 166.28-16 166.28-16.9 166.28-17.8 166.28-18.5L166.28-18.5Q166.28-19.5 165.98-20.05 165.68-20.6 165.08-20.85 164.48-21.1 163.53-21.1L163.53-21.1Q161.78-21.1 160.03-20.78 158.28-20.45 157.13-20L157.13-20Q156.73-20.7 156.6-21.4 156.48-22.1 156.48-22.6L156.48-22.6Q156.48-23 156.63-23.45 156.78-23.9 157.08-24.1L157.08-24.1Q157.68-24.5 159.73-25 161.78-25.5 164.68-25.5L164.68-25.5Q167.98-25.5 169.43-24.15 170.88-22.8 170.88-19.4L170.88-19.4 170.88-16.85Q170.88-14 170.85-11.08 170.83-8.15 170.78-5.6 170.73-3.05 170.63-1.15L170.63-1.15Q169.53-0.5 167.73 0 165.93 0.5 163.58 0.5ZM163.93-3.3L163.93-3.3Q164.63-3.3 165.25-3.53 165.88-3.75 166.13-4L166.13-4Q166.23-4.75 166.25-6.05 166.28-7.35 166.28-8.83 166.28-10.3 166.28-11.55L166.28-11.55Q165.88-11.8 165.3-11.9 164.73-12 164.28-12L164.28-12Q163.68-12 163.1-11.83 162.53-11.65 162.1-11.13 161.68-10.6 161.45-9.7 161.23-8.8 161.23-7.3L161.23-7.3Q161.23-6.1 161.4-5.33 161.58-4.55 161.93-4.1 162.28-3.65 162.8-3.48 163.33-3.3 163.93-3.3ZM181.12 0.5L181.12 0.5Q178.97 0.5 177.92-0.38 176.87-1.25 176.55-2.93 176.22-4.6 176.22-6.8L176.22-6.8 176.22-21.1 172.92-21.1Q172.92-22.85 172.97-23.68 173.02-24.5 173.25-24.75 173.47-25 173.92-25L173.92-25 176.22-25 176.22-32.5Q176.22-33.25 176.6-33.55 176.97-33.85 177.95-33.93 178.92-34 180.77-34L180.77-34 180.77-25 185.57-25Q185.57-23.25 185.52-22.43 185.47-21.6 185.3-21.35 185.12-21.1 184.67-21.1L184.67-21.1 180.77-21.1 180.77-6.85Q180.77-5.95 180.85-5.15 180.92-4.35 181.25-3.88 181.57-3.4 182.37-3.4L182.37-3.4Q183.22-3.4 183.85-3.58 184.47-3.75 185.22-4.1L185.22-4.1Q185.32-3.7 185.42-3.15 185.52-2.6 185.52-1.9L185.52-1.9Q185.52-0.9 184.82-0.38 184.12 0.15 183.12 0.33 182.12 0.5 181.12 0.5ZM192.32 0.5L192.32 0.5Q190.17 0.5 189.12-0.38 188.07-1.25 187.75-2.93 187.42-4.6 187.42-6.8L187.42-6.8 187.42-21.1 184.12-21.1Q184.12-22.85 184.17-23.68 184.22-24.5 184.44-24.75 184.67-25 185.12-25L185.12-25 187.42-25 187.42-32.5Q187.42-33.25 187.8-33.55 188.17-33.85 189.15-33.93 190.12-34 191.97-34L191.97-34 191.97-25 196.77-25Q196.77-23.25 196.72-22.43 196.67-21.6 196.5-21.35 196.32-21.1 195.87-21.1L195.87-21.1 191.97-21.1 191.97-6.85Q191.97-5.95 192.05-5.15 192.12-4.35 192.44-3.88 192.77-3.4 193.57-3.4L193.57-3.4Q194.42-3.4 195.05-3.58 195.67-3.75 196.42-4.1L196.42-4.1Q196.52-3.7 196.62-3.15 196.72-2.6 196.72-1.9L196.72-1.9Q196.72-0.9 196.02-0.38 195.32 0.15 194.32 0.33 193.32 0.5 192.32 0.5ZM206.17 0.5L206.17 0.5Q204.42 0.5 202.97 0 201.52-0.5 200.47-1.75 199.42-3 198.82-5.3 198.22-7.6 198.22-11.25L198.22-11.25Q198.22-15.9 198.97-18.73 199.72-21.55 200.97-23 202.22-24.45 203.82-24.98 205.42-25.5 207.07-25.5L207.07-25.5Q210.17-25.5 211.82-23.53 213.47-21.55 213.47-17.45L213.47-17.45Q213.47-15.7 213.32-13.9 213.17-12.1 212.82-10.75L212.82-10.75Q211.17-10.4 209.14-10.23 207.12-10.05 205.24-10 203.37-9.95 202.17-9.95 200.97-9.95 200.97-9.95L200.97-9.95 201.07-13.65Q201.07-13.65 201.92-13.63 202.77-13.6 204.07-13.6 205.37-13.6 206.64-13.73 207.92-13.85 208.77-14.1L208.77-14.1Q208.92-14.75 208.97-15.53 209.02-16.3 209.02-17L209.02-17Q208.97-19.6 208.44-20.55 207.92-21.5 206.52-21.5L206.52-21.5Q205.72-21.5 205.07-21 204.42-20.5 203.94-19.35 203.47-18.2 203.22-16.28 202.97-14.35 202.97-11.45L202.97-11.45Q202.97-9.3 203.19-7.85 203.42-6.4 203.89-5.55 204.37-4.7 205.19-4.33 206.02-3.95 207.17-3.95L207.17-3.95Q208.62-3.95 210.04-4.35 211.47-4.75 212.72-5.45L212.72-5.45Q212.97-4.8 213.04-3.93 213.12-3.05 213.12-2.35L213.12-2.35Q213.12-1.5 212.17-0.85 211.22-0.2 209.64 0.15 208.07 0.5 206.17 0.5ZM216.72 0L216.72 0 216.72-23.25Q218.11-24.25 219.86-24.88 221.61-25.5 223.56-25.5L223.56-25.5Q225.56-25.5 226.29-24.95 227.01-24.4 227.01-23.25L227.01-23.25Q227.01-22.85 226.91-22.1 226.81-21.35 226.51-20.6L226.51-20.6Q226.01-20.85 225.47-20.98 224.91-21.1 224.31-21.1L224.31-21.1Q223.61-21.1 222.84-20.85 222.06-20.6 221.41-20.1L221.41-20.1 221.36-0.9Q221.36-0.45 221.16-0.28 220.97-0.1 219.99-0.05 219.01 0 216.72 0ZM234.91 0.5L234.91 0.5Q232.31 0.5 230.59-0.13 228.86-0.75 228.86-2.15L228.86-2.15Q228.86-2.7 229.04-3.38 229.21-4.05 229.66-4.8L229.66-4.8Q230.71-4.2 231.91-3.9 233.11-3.6 234.41-3.6L234.41-3.6Q236.16-3.6 237.09-4.33 238.01-5.05 238.01-6.35L238.01-6.35Q238.01-7.2 237.66-8.08 237.31-8.95 236.26-9.9L236.26-9.9 231.61-14.2Q230.01-15.6 229.44-16.95 228.86-18.3 228.86-19.5L228.86-19.5Q228.86-21.25 229.71-22.6 230.56-23.95 232.39-24.73 234.21-25.5 237.11-25.5L237.11-25.5Q239.71-25.5 241.06-25 242.41-24.5 242.86-23.83 243.31-23.15 243.31-22.6L243.31-22.6Q243.31-21.4 242.36-20.3L242.36-20.3Q241.26-20.95 240.14-21.25 239.01-21.55 237.66-21.55L237.66-21.55Q236.06-21.55 235.16-21 234.26-20.45 234.26-19.4L234.26-19.4Q234.26-18.85 234.59-18.23 234.91-17.6 236.06-16.55L236.06-16.55 240.41-12.75Q241.96-11.15 242.59-9.8 243.21-8.45 243.21-6.55L243.21-6.55Q243.21-3.2 240.99-1.35 238.76 0.5 234.91 0.5Z" opacity="1" transform="matrix(1,0,0,1,0,0)" fill="#ffffff" class="undefined-text-1" data-fill-palette-color="secondary" id="text-1"></path></svg></g></svg></g></svg></g></svg></g><g transform="matrix(1,0,0,1,0,0.30747882047147357)"><svg viewBox="0 0 163.9887459559394 122.99152818859147" height="122.99152818859147" width="163.9887459559394"><g><svg xmlns="http://www.w3.org/2000/svg" viewBox="1.9999864101409912 7 60.00001525878906 45" x="0" y="0" height="122.99152818859147" width="163.9887459559394" class="icon-icon-0" data-fill-palette-color="accent" id="icon-0"><g data-name="Layer 4" fill="#8b3c7f" data-fill-palette-color="accent"><path d="M59 18H46a3 3 0 0 0-3 3V49a3 3 0 0 0 3 3H59a3 3 0 0 0 3-3V21A3 3 0 0 0 59 18ZM45 24H60V45H45Zm1-4H59a1 1 0 0 1 1 1v1H45V21A1 1 0 0 1 46 20ZM59 50H46a1 1 0 0 1-1-1V47H60v2A1 1 0 0 1 59 50Z" fill="#ffffff" data-fill-palette-color="accent"></path><path d="M40 37a1 1 0 0 0 0-2H4V10.75A1.74 1.74 0 0 1 5.72 9H49.28A1.74 1.74 0 0 1 51 10.75V15a1 1 0 0 0 2 0V10.75A3.74 3.74 0 0 0 49.28 7H5.72A3.74 3.74 0 0 0 2 10.75v27.5A3.74 3.74 0 0 0 5.72 42H24v8H15a1 1 0 0 0 0 2H40a1 1 0 0 0 0-2H31V42h9a1 1 0 0 0 0-2H5.72A1.74 1.74 0 0 1 4 38.25V37ZM29 42v8H26V42Z" fill="#ffffff" data-fill-palette-color="accent"></path><path d="M23.71 22.29a1 1 0 0 0-1.42 1.42l4 4a1 1 0 0 0 1.42 0l8-8a1 1 0 0 0-1.42-1.42L27 25.59Z" fill="#ffffff" data-fill-palette-color="accent"></path><path d="M54.33 32.26l-2.66 2.39-1-0.89a1 1 0 0 0-1.34 1.48L51 36.74a1 1 0 0 0 1.34 0l3.33-3a1 1 0 1 0-1.34-1.48Z" fill="#ffffff" data-fill-palette-color="accent"></path><path d="M18 22A11 11 0 1 0 29 11 11 11 0 0 0 18 22Zm20 0a9 9 0 1 1-9-9A9 9 0 0 1 38 22Z" fill="#ffffff" data-fill-palette-color="accent"></path><path d="M52.5 28A6.5 6.5 0 1 0 59 34.5 6.51 6.51 0 0 0 52.5 28Zm0 11A4.5 4.5 0 1 1 57 34.5 4.51 4.51 0 0 1 52.5 39Z" fill="#ffffff" data-fill-palette-color="accent"></path></g></svg></g></svg></g></svg></g><defs></defs></svg><rect width="395.52" height="81.91671024263141" fill="none" stroke="none" visibility="hidden"></rect></g></svg></g></svg>